<svg viewBox="-720 -369.5 1440 739" width="1440" height="739" style="background-color: rgb(255, 255, 255);" xmlns="http://www.w3.org/2000/svg"><path d="M-94.03744787925707,51.106951157031396L-107.08447444698123,49.95441080853928M-107.08447444698123,-98.81695959572924L-107.08447444698123,49.95441080853928M-107.08447444698123,49.95441080853928L-174.49882648814645,73.94262412130223M-94.03744787925707,-97.66441924723713L-94.03744787925707,51.106951157031396M-94.03744787925707,51.106951157031396L-161.45179992042227,75.09516446979434" style="fill:none;stroke:rgb(0,0,0);stroke-width:1;stroke-linecap:round"></path><path d="M-94.03744787925709,51.106951157031396L-107.08447444698123,49.95441080853927L-107.08447444698123,-98.81695959572926zM-94.03744787925709,-97.66441924723715L-94.03744787925709,51.106951157031396L-107.08447444698123,-98.81695959572926z" style="fill:rgb(238,238,238); fill-opacity: 0.66"></path><path d="M-94.03744787925707,-97.66441924723713L-107.08447444698123,-98.81695959572924M-107.08447444698123,-98.81695959572924L-174.49882648814645,-74.8287462829663M-94.03744787925707,-97.66441924723713L-161.45179992042227,-73.6762059344742M-36.07762612566773,40.80914982939307L-90.28343830339827,36.02074955034639M-90.28343830339827,-74.14471395511995L-90.28343830339827,36.02074955034639M-90.28343830339827,36.02074955034639L-140.20388549262816,53.784064031401314" style="fill:none;stroke:rgb(0,0,0);stroke-width:1;stroke-linecap:round"></path><path d="M-174.49882648814645,73.94262412130222L-107.08447444698123,49.95441080853927L-94.03744787925709,51.106951157031396zM-36.07762612566773,40.80914982939307L-90.28343830339826,36.02074955034639L-90.28343830339826,-74.14471395511995z" style="fill:rgb(238,238,238); fill-opacity: 0.66"></path><path d="M-36.07762612566773,-69.35631367607327L-90.28343830339827,-74.14471395511995M-90.28343830339827,-74.14471395511995L-140.20388549262816,-56.38139947406502" style="fill:none;stroke:rgb(0,0,0);stroke-width:1;stroke-linecap:round"></path><path d="M-161.4517999204223,75.09516446979434L-94.03744787925709,51.106951157031396L-94.03744787925709,-97.66441924723715z" style="fill:rgb(238,238,238); fill-opacity: 0.66"></path><path d="M-36.07762612566773,-69.35631367607327L-36.07762612566773,40.80914982939307M-36.07762612566773,40.80914982939307L-85.99807331489762,58.57246431044799" style="fill:none;stroke:rgb(0,0,0);stroke-width:1;stroke-linecap:round"></path><path d="M-107.08447444698123,-98.81695959572926L-107.08447444698123,49.95441080853927L-174.49882648814645,-74.82874628296632z" style="fill:rgb(238,238,238); fill-opacity: 0.66"></path><path d="M-115.17425943872162,-64.41906932091094L-128.22128600644578,-65.57160966940305M-128.22128600644578,-73.1316251800632L-128.22128600644578,-65.57160966940305M-128.22128600644578,-65.57160966940305L-131.64703617388315,-64.3526166317997" style="fill:none;stroke:rgb(0,0,0);stroke-width:1;stroke-linecap:round"></path><path d="M-36.07762612566773,-69.35631367607327L-36.07762612566773,40.80914982939307L-90.28343830339826,-74.14471395511995z" style="fill:rgb(238,238,238); fill-opacity: 0.66"></path><path d="M-115.17425943872162,-71.97908483157107L-128.22128600644578,-73.1316251800632M-128.22128600644578,-73.1316251800632L-131.64703617388315,-71.91263214245984" style="fill:none;stroke:rgb(0,0,0);stroke-width:1;stroke-linecap:round"></path><path d="M-115.17425943872163,-64.41906932091094L-128.22128600644578,-65.57160966940306L-128.22128600644578,-73.1316251800632zM-128.22128600644578,-73.1316251800632L-128.22128600644578,-65.57160966940306L-131.64703617388315,-71.91263214245984zM-131.64703617388315,-64.3526166317997L-128.22128600644578,-65.57160966940306L-115.17425943872163,-64.41906932091094zM-128.22128600644578,-65.57160966940306L-131.64703617388315,-64.3526166317997L-131.64703617388315,-71.91263214245984zM-115.17425943872163,-71.97908483157109L-115.17425943872163,-64.41906932091094L-128.22128600644578,-73.1316251800632z" style="fill:rgb(153,221,255); fill-opacity: 0.4"></path><path d="M-115.17426181757016,-71.97908293825006L-115.17426181757016,-64.41906742758992M-115.17426181757016,-64.41906742758992L-118.60001198500754,-63.20007438998658M-115.17426181757016,-64.41906742758992L-107.20367358029858,-51.87424001438185M-115.17425943872162,-71.97908483157107L-115.17425943872162,-64.41906932091094M-115.17425943872162,-64.41906932091094L-118.600009606159,-63.200076283307574M-131.64703617388315,-71.91263214245984L-131.64703617388315,-64.3526166317997M-131.64703617388315,-64.3526166317997L-118.600009606159,-63.200076283307574M-115.17426181757016,-71.97908293825006L-118.60001198500754,-70.76008990064672M-115.17426181757016,-71.97908293825006L-107.20367358029858,-51.87424001438185M-115.17425943872162,-71.97908483157107L-118.600009606159,-70.76009179396772" style="fill:none;stroke:rgb(0,0,0);stroke-width:1;stroke-linecap:round"></path><path d="M-118.60000960615902,-70.76009179396773L-115.17425943872163,-71.97908483157109L-128.22128600644578,-73.1316251800632zM-131.64703617388315,-71.91263214245984L-118.60000960615902,-70.76009179396773L-128.22128600644578,-73.1316251800632z" style="fill:rgb(153,221,255); fill-opacity: 0.4"></path><path d="M-131.64703617388315,-71.91263214245984L-118.600009606159,-70.76009179396772" style="fill:none;stroke:rgb(0,0,0);stroke-width:1;stroke-linecap:round"></path><path d="M-118.60000960615902,-63.20007628330759L-131.64703617388315,-64.3526166317997L-115.17425943872163,-64.41906932091094z" style="fill:rgb(153,221,255); fill-opacity: 0.4"></path><path d="M-115.17425970551868,-71.97908485513923L-115.17425970551868,-64.4190693444791L-118.60000987295606,-63.200076306875744z" style="fill:rgb(255,187,187); fill-opacity: 0.4"></path><path d="M-118.60000960615902,-63.20007628330759L-115.17425943872163,-64.41906932091094L-115.17425943872163,-71.97908483157109zM-131.64703617388315,-71.91263214245984L-131.64703617388315,-64.3526166317997L-118.60000960615902,-70.76009179396773z" style="fill:rgb(153,221,255); fill-opacity: 0.4"></path><path d="M-140.20388549262816,53.784064031401314L-90.28343830339826,36.02074955034639L-36.07762612566773,40.80914982939307z" style="fill:rgb(238,238,238); fill-opacity: 0.66"></path><path d="M-115.17425970551868,-64.4190693444791L-115.17425970551868,-71.97908485513923L-107.2036716172998,-51.87423930799846z" style="fill:rgb(255,187,187); fill-opacity: 0.4"></path><path d="M-131.64703617388315,-64.3526166317997L-118.60000960615902,-63.20007628330759L-118.60000960615902,-70.76009179396773z" style="fill:rgb(153,221,255); fill-opacity: 0.4"></path><path d="M-161.4517999204223,-73.6762059344742L-94.03744787925709,-97.66441924723715L-107.08447444698123,-98.81695959572926z" style="fill:rgb(238,238,238); fill-opacity: 0.66"></path><path d="M-115.17425970551868,-71.97908485513923L-118.60000987295606,-63.200076306875744L-118.60000987295606,-70.7600918175359z" style="fill:rgb(255,187,187); fill-opacity: 0.4"></path><path d="M-118.60000960615902,-70.76009179396773L-118.60000960615902,-63.20007628330759L-115.17425943872163,-71.97908483157109z" style="fill:rgb(153,221,255); fill-opacity: 0.4"></path><path d="M37.845738131258464,39.52789272026543L-28.008315029760578,33.710517168384506M-28.008315029760578,-56.895224644035636L-28.008315029760578,33.710517168384506M-28.008315029760578,33.710517168384506L-69.0654576701443,48.31998037391466" style="fill:none;stroke:rgb(0,0,0);stroke-width:1;stroke-linecap:round"></path><path d="M-118.60000987295606,-63.200076306875744L-115.17425970551868,-64.4190693444791L-107.2036716172998,-51.87423930799846z" style="fill:rgb(255,187,187); fill-opacity: 0.4"></path><path d="M-118.60001198500754,-63.20007438998658L-118.60001198500754,-70.76008990064672M-118.60001198500754,-63.20007438998658L-107.20367358029858,-51.87424001438185M-118.600009606159,-70.76009179396772L-118.600009606159,-63.200076283307574" style="fill:none;stroke:rgb(0,0,0);stroke-width:1;stroke-linecap:round"></path><path d="M-115.17425970551868,-71.97908485513923L-118.60000987295606,-70.7600918175359L-107.2036716172998,-51.87423930799846z" style="fill:rgb(255,187,187); fill-opacity: 0.4"></path><path d="M-118.60001198500754,-70.76008990064672L-107.20367358029858,-51.87424001438185" style="fill:none;stroke:rgb(0,0,0);stroke-width:1;stroke-linecap:round"></path><path d="M-90.28343830339826,-74.14471395511995L-90.28343830339826,36.02074955034639L-140.20388549262816,-56.38139947406502z" style="fill:rgb(238,238,238); fill-opacity: 0.66"></path><path d="M-36.07762612566773,-69.35631367607327L-85.99807331489762,-51.592999195018336" style="fill:none;stroke:rgb(0,0,0);stroke-width:1;stroke-linecap:round"></path><path d="M-118.60000987295606,-70.7600918175359L-118.60000987295606,-63.200076306875744L-107.2036716172998,-51.87423930799846z" style="fill:rgb(255,187,187); fill-opacity: 0.4"></path><path d="M37.845738131258464,39.52789272026542L-28.00831502976057,33.710517168384506L-28.00831502976057,-56.89522464403565z" style="fill:rgb(238,238,238); fill-opacity: 0.66"></path><path d="M37.845738131258464,-51.07784909215472L-28.008315029760578,-56.895224644035636M-28.008315029760578,-56.895224644035636L-69.0654576701443,-42.28576143850549" style="fill:none;stroke:rgb(0,0,0);stroke-width:1;stroke-linecap:round"></path><path d="M-161.4517999204223,75.09516446979434L-174.49882648814645,73.94262412130222L-94.03744787925709,51.106951157031396zM-107.08447444698123,49.95441080853927L-174.49882648814645,73.94262412130222L-174.49882648814645,-74.82874628296632zM-85.99807331489761,58.57246431044799L-36.07762612566773,40.80914982939307L-36.07762612566773,-69.35631367607327zM-85.99807331489761,-51.592999195018336L-36.07762612566773,-69.35631367607327L-90.28343830339826,-74.14471395511995zM-90.28343830339826,36.02074955034639L-140.20388549262816,53.784064031401314L-140.20388549262816,-56.38139947406502z" style="fill:rgb(238,238,238); fill-opacity: 0.66"></path><path d="M-65.2051295970446,-38.49105121548984L-119.41094177477513,-43.279451494536524M-119.41094177477513,-46.715822181200224L-119.41094177477513,-43.279451494536524M-119.41094177477513,-43.279451494536524L-120.96810094179213,-42.72536375017137M-65.2051295970446,-41.92742190215354L-119.41094177477513,-46.715822181200224M-119.41094177477513,-46.715822181200224L-120.96810094179213,-46.16173443683507" style="fill:none;stroke:rgb(0,0,0);stroke-width:1;stroke-linecap:round"></path><path d="M-119.41094177477513,-46.71582218120024L-119.41094177477513,-43.27945149453652L-120.96810094179213,-46.16173443683507z" style="fill:rgb(153,221,255); fill-opacity: 0.4"></path><path d="M37.845738131258464,-51.07784909215472L37.845738131258464,39.52789272026543M37.845738131258464,39.52789272026543L-3.2114045091252685,54.137355925795575" style="fill:none;stroke:rgb(0,0,0);stroke-width:1;stroke-linecap:round"></path><path d="M37.845738131258464,-51.07784909215472L37.845738131258464,39.52789272026542L-28.00831502976057,-56.89522464403565z" style="fill:rgb(238,238,238); fill-opacity: 0.66"></path><path d="M-119.41094177477513,-43.27945149453652L-120.96810094179213,-42.72536375017137L-120.96810094179213,-46.16173443683507z" style="fill:rgb(153,221,255); fill-opacity: 0.4"></path><path d="M-120.96810094179213,-46.16173443683507L-120.96810094179213,-42.72536375017137M-120.96810094179213,-42.72536375017137L-66.76228876406161,-37.936963471124685M-120.96810094179213,-46.16173443683507L-66.76228876406161,-41.37333415778839" style="fill:none;stroke:rgb(0,0,0);stroke-width:1;stroke-linecap:round"></path><path d="M-161.4517999204223,-73.6762059344742L-161.4517999204223,75.09516446979434L-94.03744787925709,-97.66441924723715z" style="fill:rgb(238,238,238); fill-opacity: 0.66"></path><path d="M22.73951971388589,6.946196795644157L-43.11453344713315,1.1288212437632363M-43.11453344713315,-0.933001168234985L-43.11453344713315,1.1288212437632363M-43.11453344713315,1.1288212437632363L-44.04882894734334,1.461273890382331M22.73951971388589,4.884374383645936L-43.11453344713315,-0.933001168234985M-43.11453344713315,-0.933001168234985L-44.04882894734334,-0.6005485216158906" style="fill:none;stroke:rgb(0,0,0);stroke-width:1;stroke-linecap:round"></path><path d="M-43.11453344713315,-0.9330011682349858L-43.11453344713315,1.1288212437632352L-44.04882894734334,-0.6005485216158907z" style="fill:rgb(153,221,255); fill-opacity: 0.4"></path><path d="M-69.0654576701443,48.31998037391465L-28.00831502976057,33.710517168384506L37.845738131258464,39.52789272026542zM-28.00831502976057,-56.89522464403565L-28.00831502976057,33.710517168384506L-69.0654576701443,-42.28576143850549z" style="fill:rgb(238,238,238); fill-opacity: 0.66"></path><path d="M-43.11453344713315,1.1288212437632352L-44.04882894734334,1.4612738903823301L-44.04882894734334,-0.6005485216158907z" style="fill:rgb(153,221,255); fill-opacity: 0.4"></path><path d="M-44.04882894734334,-0.6005485216158906L-44.04882894734334,1.461273890382331M-44.04882894734334,1.461273890382331L21.805224213675693,7.278649442263252M-44.04882894734334,-0.6005485216158906L21.805224213675693,5.216827030265031" style="fill:none;stroke:rgb(0,0,0);stroke-width:1;stroke-linecap:round"></path><path d="M-65.20512959704459,-38.49105121548984L-119.41094177477513,-43.27945149453652L-119.41094177477513,-46.71582218120024z" style="fill:rgb(153,221,255); fill-opacity: 0.4"></path><path d="M-85.99807331489761,58.57246431044799L-140.20388549262816,53.784064031401314L-36.07762612566773,40.80914982939307z" style="fill:rgb(238,238,238); fill-opacity: 0.66"></path><path d="M-120.96810094179213,-42.72536375017137L-119.41094177477513,-43.27945149453652L-65.20512959704459,-38.49105121548984z" style="fill:rgb(153,221,255); fill-opacity: 0.4"></path><path d="M-174.49882648814645,-74.82874628296632L-161.4517999204223,-73.6762059344742L-107.08447444698123,-98.81695959572926z" style="fill:rgb(238,238,238); fill-opacity: 0.66"></path><path d="M-120.96810094179213,-46.16173443683507L-66.76228876406158,-41.37333415778839L-119.41094177477513,-46.71582218120024zM-120.96810094179213,-46.16173443683507L-120.96810094179213,-42.72536375017137L-66.76228876406158,-41.37333415778839zM22.739519713885894,6.946196795644157L-43.11453344713315,1.1288212437632352L-43.11453344713315,-0.9330011682349858zM-44.04882894734334,1.4612738903823301L-43.11453344713315,1.1288212437632352L22.739519713885894,6.946196795644157zM-65.20512959704459,-41.92742190215355L-65.20512959704459,-38.49105121548984L-119.41094177477513,-46.71582218120024z" style="fill:rgb(153,221,255); fill-opacity: 0.4"></path><path d="M37.845738131258464,-51.07784909215472L-3.2114045091252685,-36.46838588662457" style="fill:none;stroke:rgb(0,0,0);stroke-width:1;stroke-linecap:round"></path><path d="M-44.04882894734334,-0.6005485216158907L21.805224213675693,5.216827030265031L-43.11453344713315,-0.9330011682349858z" style="fill:rgb(153,221,255); fill-opacity: 0.4"></path><path d="M116.46359391598625,38.44843996714803L45.794268448000956,32.205695800131124M45.794268448000956,-38.30724011784156L45.794268448000956,32.205695800131124M45.794268448000956,32.205695800131124L13.841992465646054,43.57535209564765" style="fill:none;stroke:rgb(0,0,0);stroke-width:1;stroke-linecap:round"></path><path d="M-44.04882894734334,-0.6005485216158907L-44.04882894734334,1.4612738903823301L21.805224213675693,5.216827030265031zM-66.76228876406158,-41.37333415778839L-65.20512959704459,-41.92742190215355L-119.41094177477513,-46.71582218120024zM-66.76228876406158,-37.936963471124685L-120.96810094179213,-42.72536375017137L-65.20512959704459,-38.49105121548984z" style="fill:rgb(153,221,255); fill-opacity: 0.4"></path><path d="M-140.20388549262816,-56.38139947406502L-85.99807331489761,-51.592999195018336L-90.28343830339826,-74.14471395511995z" style="fill:rgb(238,238,238); fill-opacity: 0.66"></path><path d="M-120.96810094179213,-42.72536375017137L-66.76228876406158,-37.936963471124685L-66.76228876406158,-41.37333415778839z" style="fill:rgb(153,221,255); fill-opacity: 0.4"></path><path d="M-140.20388549262816,-56.38139947406502L-140.20388549262816,53.784064031401314M-140.20388549262816,53.784064031401314L-85.99807331489762,58.57246431044799M-174.49882648814645,-74.8287462829663L-174.49882648814645,73.94262412130223M-174.49882648814645,73.94262412130223L-161.45179992042227,75.09516446979434M-65.20513086945739,-41.92742216136044L-65.20513086945739,-38.49105147469674M-65.20513086945739,-38.49105147469674L-66.76228973946985,-37.93696383601544M-65.20513086945739,-38.49105147469674L-52.60461695741032,-32.69531436334352M-65.2051295970446,-41.92742190215354L-65.2051295970446,-38.49105121548984M-65.2051295970446,-38.49105121548984L-66.76228876406161,-37.936963471124685M-65.20513086945739,-41.92742216136044L-66.76228973946985,-41.37333452267914M-65.20513086945739,-41.92742216136044L-52.60461695741032,-32.69531436334352M-65.2051295970446,-41.92742190215354L-66.76228876406161,-41.37333415778839" style="fill:none;stroke:rgb(0,0,0);stroke-width:1;stroke-linecap:round"></path><path d="M-65.20513036745972,-41.92742197021001L-65.20513036745972,-38.491051283546305L-66.76228953447671,-37.93696353918115z" style="fill:rgb(255,187,187); fill-opacity: 0.4"></path><path d="M-66.76228876406158,-37.936963471124685L-65.20512959704459,-38.49105121548984L-65.20512959704459,-41.92742190215355zM22.739519713885894,4.884374383645936L22.739519713885894,6.946196795644157L-43.11453344713315,-0.9330011682349858z" style="fill:rgb(153,221,255); fill-opacity: 0.4"></path><path d="M-65.20513036745972,-38.491051283546305L-65.20513036745972,-41.92742197021001L-52.60461658466604,-32.69531467687203z" style="fill:rgb(255,187,187); fill-opacity: 0.4"></path><path d="M21.805224213675693,5.216827030265031L22.739519713885894,4.884374383645936L-43.11453344713315,-0.9330011682349858zM21.805224213675693,7.278649442263252L-44.04882894734334,1.4612738903823301L22.739519713885894,6.946196795644157z" style="fill:rgb(153,221,255); fill-opacity: 0.4"></path><path d="M-65.20513036745972,-41.92742197021001L-66.76228953447671,-37.93696353918115L-66.76228953447671,-41.37333422584486z" style="fill:rgb(255,187,187); fill-opacity: 0.4"></path><path d="M-66.76228876406158,-41.37333415778839L-66.76228876406158,-37.936963471124685L-65.20512959704459,-41.92742190215355z" style="fill:rgb(153,221,255); fill-opacity: 0.4"></path><path d="M-28.00831502976057,33.710517168384506L-69.0654576701443,48.31998037391465L-69.0654576701443,-42.28576143850549z" style="fill:rgb(238,238,238); fill-opacity: 0.66"></path><path d="M-66.76228953447671,-37.93696353918115L-65.20513036745972,-38.491051283546305L-52.60461658466604,-32.69531467687203z" style="fill:rgb(255,187,187); fill-opacity: 0.4"></path><path d="M-66.76228973946985,-37.93696383601544L-66.76228973946985,-41.37333452267914M-66.76228973946985,-37.93696383601544L-52.60461695741032,-32.69531436334352M-66.76228876406161,-41.37333415778839L-66.76228876406161,-37.936963471124685" style="fill:none;stroke:rgb(0,0,0);stroke-width:1;stroke-linecap:round"></path><path d="M-65.20513036745972,-41.92742197021001L-66.76228953447671,-41.37333422584486L-52.60461658466604,-32.69531467687203z" style="fill:rgb(255,187,187); fill-opacity: 0.4"></path><path d="M-44.04882894734334,1.4612738903823301L21.805224213675693,7.278649442263252L21.805224213675693,5.216827030265031z" style="fill:rgb(153,221,255); fill-opacity: 0.4"></path><path d="M-66.76228973946985,-41.37333452267914L-52.60461695741032,-32.69531436334352" style="fill:none;stroke:rgb(0,0,0);stroke-width:1;stroke-linecap:round"></path><path d="M-66.76228953447671,-41.37333422584486L-66.76228953447671,-37.93696353918115L-52.60461658466604,-32.69531467687203z" style="fill:rgb(255,187,187); fill-opacity: 0.4"></path><path d="M116.46359391598625,-32.06449595082465L45.794268448000956,-38.30724011784156M45.794268448000956,-38.30724011784156L13.841992465646054,-26.937583822325035" style="fill:none;stroke:rgb(0,0,0);stroke-width:1;stroke-linecap:round"></path><path d="M-85.99807331489761,-51.592999195018336L-85.99807331489761,58.57246431044799L-36.07762612566773,-69.35631367607327z" style="fill:rgb(238,238,238); fill-opacity: 0.66"></path><path d="M-161.45179992042227,-73.6762059344742L-161.45179992042227,75.09516446979434" style="fill:none;stroke:rgb(0,0,0);stroke-width:1;stroke-linecap:round"></path><path d="M-3.211404509125265,54.137355925795575L37.845738131258464,39.52789272026542L37.845738131258464,-51.07784909215472zM-3.211404509125265,-36.46838588662457L37.845738131258464,-51.07784909215472L-28.00831502976057,-56.89522464403565zM116.46359391598625,38.44843996714803L45.79426844800096,32.20569580013112L45.79426844800096,-38.307240117841566z" style="fill:rgb(238,238,238); fill-opacity: 0.66"></path><path d="M22.73951971388589,4.884374383645936L22.73951971388589,6.946196795644157M22.73951971388589,6.946196795644157L21.805224213675693,7.278649442263252M22.73952072947018,4.884374485408601L22.73952072947018,6.946196897406821M22.73952072947018,6.946196897406821L21.80522493225544,7.278649649709767M22.73952072947018,6.946196897406821L33.67446555004803,6.17641259241282M22.73951971388589,4.884374383645936L21.805224213675693,5.216827030265031M22.73952072947018,4.884374485408601L21.80522493225544,5.216827237711546M22.73952072947018,4.884374485408601L33.67446555004803,6.17641259241282" style="fill:none;stroke:rgb(0,0,0);stroke-width:1;stroke-linecap:round"></path><path d="M21.805224213675693,7.278649442263252L22.739519713885894,6.946196795644157L22.739519713885894,4.884374383645936z" style="fill:rgb(153,221,255); fill-opacity: 0.4"></path><path d="M22.73952081559258,4.8843744809678356L22.73952081559258,6.946196892966056L21.805225315382383,7.278649539585152z" style="fill:rgb(255,187,187); fill-opacity: 0.4"></path><path d="M-174.49882648814645,73.94262412130222L-161.4517999204223,75.09516446979434L-161.4517999204223,-73.6762059344742z" style="fill:rgb(238,238,238); fill-opacity: 0.66"></path><path d="M21.805224213675693,5.216827030265031L21.805224213675693,7.278649442263252L22.739519713885894,4.884374383645936z" style="fill:rgb(153,221,255); fill-opacity: 0.4"></path><path d="M22.73952081559258,4.8843744809678356L21.805225315382383,7.278649539585152L21.805225315382383,5.216827127586931z" style="fill:rgb(255,187,187); fill-opacity: 0.4"></path><path d="M21.805224213675693,5.216827030265031L21.805224213675693,7.278649442263252M21.80522493225544,7.278649649709767L21.80522493225544,5.216827237711546M21.80522493225544,7.278649649709767L33.67446555004803,6.17641259241282M21.80522493225544,5.216827237711546L33.67446555004803,6.17641259241282" style="fill:none;stroke:rgb(0,0,0);stroke-width:1;stroke-linecap:round"></path><path d="M22.73952081559258,6.946196892966056L22.73952081559258,4.8843744809678356L33.67446571268652,6.176412801073554zM21.805225315382383,7.278649539585152L22.73952081559258,6.946196892966056L33.67446571268652,6.176412801073554zM22.73952081559258,4.8843744809678356L21.805225315382383,5.216827127586931L33.67446571268652,6.176412801073554zM21.805225315382383,5.216827127586931L21.805225315382383,7.278649539585152L33.67446571268652,6.176412801073554z" style="fill:rgb(255,187,187); fill-opacity: 0.4"></path><path d="M-140.20388549262816,-56.38139947406502L-85.99807331489762,-51.592999195018336" style="fill:none;stroke:rgb(0,0,0);stroke-width:1;stroke-linecap:round"></path><path d="M-3.211404509125265,54.137355925795575L-69.0654576701443,48.31998037391465L37.845738131258464,39.52789272026542zM-174.49882648814645,-74.82874628296632L-174.49882648814645,73.94262412130222L-161.4517999204223,-73.6762059344742zM-140.20388549262816,-56.38139947406502L-140.20388549262816,53.784064031401314L-85.99807331489761,-51.592999195018336zM45.79426844800096,-38.307240117841566L45.79426844800096,32.20569580013112L13.841992465646062,-26.93758382232504zM-140.20388549262816,53.784064031401314L-85.99807331489761,58.57246431044799L-85.99807331489761,-51.592999195018336zM116.46359391598625,-32.06449595082465L116.46359391598625,38.44843996714803L45.79426844800096,-38.307240117841566z" style="fill:rgb(238,238,238); fill-opacity: 0.66"></path><path d="M-69.0654576701443,-42.28576143850549L-69.0654576701443,48.31998037391466M-69.0654576701443,48.31998037391466L-3.2114045091252685,54.137355925795575" style="fill:none;stroke:rgb(0,0,0);stroke-width:1;stroke-linecap:round"></path><path d="M-69.0654576701443,-42.28576143850549L-3.211404509125265,-36.46838588662457L-28.00831502976057,-56.89522464403565zM13.841992465646062,43.575352095647645L45.79426844800096,32.20569580013112L116.46359391598625,38.44843996714803z" style="fill:rgb(238,238,238); fill-opacity: 0.66"></path><path d="M-85.99807331489762,-51.592999195018336L-85.99807331489762,58.57246431044799M-174.49882648814645,-74.8287462829663L-161.45179992042227,-73.6762059344742M116.46359391598625,-32.06449595082465L116.46359391598625,38.44843996714803M116.46359391598625,38.44843996714803L84.51131793363135,49.818096262664554M199.63388143303328,45.79548656519967L128.964555965048,39.55274239818276M128.964555965048,-30.96019351978993L128.964555965048,39.55274239818276M128.964555965048,39.55274239818276L97.0122799826931,50.922398693699286" style="fill:none;stroke:rgb(0,0,0);stroke-width:1;stroke-linecap:round"></path><path d="M45.79426844800096,32.20569580013112L13.841992465646062,43.575352095647645L13.841992465646062,-26.93758382232504z" style="fill:rgb(238,238,238); fill-opacity: 0.66"></path><path d="M116.46359391598625,-32.06449595082465L84.51131793363135,-20.694839655308122" style="fill:none;stroke:rgb(0,0,0);stroke-width:1;stroke-linecap:round"></path><path d="M-3.211404509125265,-36.46838588662457L-3.211404509125265,54.137355925795575L37.845738131258464,-51.07784909215472z" style="fill:rgb(238,238,238); fill-opacity: 0.66"></path><path d="M-69.0654576701443,-42.28576143850549L-3.2114045091252685,-36.46838588662457M199.63388143303328,-24.717449352773016L128.964555965048,-30.96019351978993M128.964555965048,-30.96019351978993L97.0122799826931,-19.5905372242734" style="fill:none;stroke:rgb(0,0,0);stroke-width:1;stroke-linecap:round"></path><path d="M-69.0654576701443,-42.28576143850549L-69.0654576701443,48.31998037391465L-3.211404509125265,-36.46838588662457zM199.63388143303334,45.795486565199674L128.96455596504802,39.55274239818276L128.96455596504802,-30.96019351978993zM84.51131793363135,-20.694839655308122L116.46359391598625,-32.06449595082465L45.79426844800096,-38.307240117841566zM-69.0654576701443,48.31998037391465L-3.211404509125265,54.137355925795575L-3.211404509125265,-36.46838588662457zM84.51131793363135,49.818096262664554L116.46359391598625,38.44843996714803L116.46359391598625,-32.06449595082465z" style="fill:rgb(238,238,238); fill-opacity: 0.66"></path><path d="M88.30682543840734,18.248742304142592L17.63749997042206,12.005998137125678M17.63749997042206,9.944175725127458L17.63749997042206,12.005998137125678M17.63749997042206,12.005998137125678L16.703204470211865,12.338450783744772M88.30682543840734,16.186919892144374L17.63749997042206,9.944175725127458M17.63749997042206,9.944175725127458L16.703204470211865,10.276628371746552" style="fill:none;stroke:rgb(0,0,0);stroke-width:1;stroke-linecap:round"></path><path d="M17.637499970422063,9.944175725127458L17.637499970422063,12.005998137125678L16.70320447021187,10.276628371746552zM17.637499970422063,12.005998137125678L16.70320447021187,12.338450783744776L16.70320447021187,10.276628371746552z" style="fill:rgb(153,221,255); fill-opacity: 0.4"></path><path d="M16.703204470211865,10.276628371746552L16.703204470211865,12.338450783744772M16.703204470211865,12.338450783744772L87.37252993819716,18.581194950761688M13.841992465646054,-26.937583822325035L13.841992465646054,43.57535209564765M13.841992465646054,43.57535209564765L84.51131793363135,49.818096262664554M16.703204470211865,10.276628371746552L87.37252993819716,16.519372538763466M-3.2114045091252685,-36.46838588662457L-3.2114045091252685,54.137355925795575" style="fill:none;stroke:rgb(0,0,0);stroke-width:1;stroke-linecap:round"></path><path d="M84.51131793363135,49.818096262664554L13.841992465646062,43.575352095647645L116.46359391598625,38.44843996714803zM13.841992465646062,-26.93758382232504L84.51131793363135,-20.694839655308122L45.79426844800096,-38.307240117841566zM128.96455596504802,-30.96019351978993L128.96455596504802,39.55274239818276L97.01227998269313,-19.5905372242734zM199.63388143303334,-24.717449352773013L199.63388143303334,45.795486565199674L128.96455596504802,-30.96019351978993z" style="fill:rgb(238,238,238); fill-opacity: 0.66"></path><path d="M88.30682543840736,18.248742304142592L17.637499970422063,12.005998137125678L17.637499970422063,9.944175725127458zM16.70320447021187,12.338450783744776L17.637499970422063,12.005998137125678L88.30682543840736,18.248742304142592z" style="fill:rgb(153,221,255); fill-opacity: 0.4"></path><path d="M97.01227998269313,50.92239869369927L128.96455596504802,39.55274239818276L199.63388143303334,45.795486565199674z" style="fill:rgb(238,238,238); fill-opacity: 0.66"></path><path d="M16.70320447021187,10.276628371746552L87.37252993819716,16.519372538763466L17.637499970422063,9.944175725127458zM16.70320447021187,10.276628371746552L16.70320447021187,12.338450783744776L87.37252993819716,16.519372538763466z" style="fill:rgb(153,221,255); fill-opacity: 0.4"></path><path d="M199.63388143303328,-24.717449352773016L199.63388143303328,45.79548656519967M199.63388143303328,45.79548656519967L167.6816054506784,57.165142860716195M13.841992465646054,-26.937583822325035L84.51131793363135,-20.694839655308122M181.45410324603677,33.82581031294235L110.78477777805148,27.58306614592544M110.78477777805148,25.52124373392722L110.78477777805148,27.58306614592544M110.78477777805148,27.58306614592544L109.8504822778413,27.915518792544535M181.45410324603677,31.76398790094413L110.78477777805148,25.52124373392722M110.78477777805148,25.52124373392722L109.8504822778413,25.85369638054631" style="fill:none;stroke:rgb(0,0,0);stroke-width:1;stroke-linecap:round"></path><path d="M110.7847777780515,25.521243733927214L110.7847777780515,27.58306614592544L109.85048227784131,25.85369638054631zM110.7847777780515,27.58306614592544L109.85048227784131,27.91551879254453L109.85048227784131,25.85369638054631z" style="fill:rgb(153,221,255); fill-opacity: 0.4"></path><path d="M277.9888982398092,52.717164689163205L212.1348450787902,46.899789137282276M212.1348450787902,-23.613146780690403L212.1348450787902,46.899789137282276M212.1348450787902,46.899789137282276L180.18256909643532,58.269445432798804M109.8504822778413,25.85369638054631L109.8504822778413,27.915518792544535M109.8504822778413,27.915518792544535L180.5198077458266,34.15826295956145M109.8504822778413,25.85369638054631L180.5198077458266,32.096440547563226" style="fill:none;stroke:rgb(0,0,0);stroke-width:1;stroke-linecap:round"></path><path d="M13.841992465646062,-26.93758382232504L13.841992465646062,43.575352095647645L84.51131793363135,-20.694839655308122z" style="fill:rgb(238,238,238); fill-opacity: 0.66"></path><path d="M88.30682543840736,16.186919892144374L88.30682543840736,18.248742304142592L17.637499970422063,9.944175725127458zM87.37252993819716,16.519372538763466L88.30682543840736,16.186919892144374L17.637499970422063,9.944175725127458z" style="fill:rgb(153,221,255); fill-opacity: 0.4"></path><path d="M84.51131793363135,-20.694839655308122L84.51131793363135,49.818096262664554L116.46359391598625,-32.06449595082465z" style="fill:rgb(238,238,238); fill-opacity: 0.66"></path><path d="M87.37252993819716,18.581194950761688L16.70320447021187,12.338450783744776L88.30682543840736,18.248742304142592zM16.70320447021187,12.338450783744776L87.37252993819716,18.581194950761688L87.37252993819716,16.519372538763466z" style="fill:rgb(153,221,255); fill-opacity: 0.4"></path><path d="M128.96455596504802,39.55274239818276L97.01227998269313,50.92239869369927L97.01227998269313,-19.5905372242734z" style="fill:rgb(238,238,238); fill-opacity: 0.66"></path><path d="M199.63388143303328,-24.717449352773016L167.6816054506784,-13.347793057256489" style="fill:none;stroke:rgb(0,0,0);stroke-width:1;stroke-linecap:round"></path><path d="M13.841992465646062,43.575352095647645L84.51131793363135,49.818096262664554L84.51131793363135,-20.694839655308122z" style="fill:rgb(238,238,238); fill-opacity: 0.66"></path><path d="M181.45410324603677,33.82581031294235L110.7847777780515,27.58306614592544L110.7847777780515,25.521243733927214zM109.85048227784131,27.91551879254453L110.7847777780515,27.58306614592544L181.45410324603677,33.82581031294235zM109.85048227784131,25.85369638054631L180.5198077458266,32.09644054756322L110.7847777780515,25.521243733927214zM109.85048227784131,25.85369638054631L109.85048227784131,27.91551879254453L180.5198077458266,32.09644054756322z" style="fill:rgb(153,221,255); fill-opacity: 0.4"></path><path d="M277.9888982398092,-17.79577122880948L212.1348450787902,-23.613146780690403M212.1348450787902,-23.613146780690403L180.18256909643532,-12.243490485173874M88.30682543840734,16.186919892144374L88.30682543840734,18.248742304142592M88.30682543840734,18.248742304142592L87.37252993819716,18.581194950761688M88.30682828725466,16.18692007767932L88.30682828725466,18.248742489677543M88.30682828725466,18.248742489677543L87.37253278704446,18.58119513629664M88.30682828725466,18.248742489677543L100.34064357618824,18.488360125474685M88.30682543840734,16.186919892144374L87.37252993819716,16.519372538763466M88.30682828725466,16.18692007767932L87.37253278704446,16.519372724298417M88.30682828725466,16.18692007767932L100.34064357618824,18.488360125474685" style="fill:none;stroke:rgb(0,0,0);stroke-width:1;stroke-linecap:round"></path><path d="M88.3068249434189,16.18691984841838L88.3068249434189,18.248742260416602L87.37252944320872,18.581194907035698z" style="fill:rgb(255,187,187); fill-opacity: 0.4"></path><path d="M87.37252993819716,18.581194950761688L88.30682543840736,18.248742304142592L88.30682543840736,16.186919892144374z" style="fill:rgb(153,221,255); fill-opacity: 0.4"></path><path d="M277.98889823980926,52.71716468916319L212.13484507879022,46.899789137282276L212.13484507879022,-23.6131467806904z" style="fill:rgb(238,238,238); fill-opacity: 0.66"></path><path d="M88.3068249434189,16.18691984841838L87.37252944320872,18.581194907035698L87.37252944320872,16.519372495037473z" style="fill:rgb(255,187,187); fill-opacity: 0.4"></path><path d="M87.37252993819716,16.519372538763466L87.37252993819716,18.581194950761688L88.30682543840736,16.186919892144374z" style="fill:rgb(153,221,255); fill-opacity: 0.4"></path><path d="M87.37252993819716,16.519372538763466L87.37252993819716,18.581194950761688M87.37253278704446,18.58119513629664L87.37253278704446,16.519372724298417M87.37253278704446,18.58119513629664L100.34064357618824,18.488360125474685" style="fill:none;stroke:rgb(0,0,0);stroke-width:1;stroke-linecap:round"></path><path d="M167.68160545067843,-13.347793057256487L199.63388143303334,-24.717449352773013L128.96455596504802,-30.96019351978993z" style="fill:rgb(238,238,238); fill-opacity: 0.66"></path><path d="M84.51131793363135,-20.694839655308122L84.51131793363135,49.818096262664554M87.37253278704446,16.519372724298417L100.34064357618824,18.488360125474685" style="fill:none;stroke:rgb(0,0,0);stroke-width:1;stroke-linecap:round"></path><path d="M88.3068249434189,18.248742260416602L88.3068249434189,16.18691984841838L100.34064023235248,18.48835989621374zM87.37252944320872,18.581194907035698L88.3068249434189,18.248742260416602L100.34064023235248,18.48835989621374zM88.3068249434189,16.18691984841838L87.37252944320872,16.519372495037473L100.34064023235248,18.48835989621374zM87.37252944320872,16.519372495037473L87.37252944320872,18.581194907035698L100.34064023235248,18.48835989621374z" style="fill:rgb(255,187,187); fill-opacity: 0.4"></path><path d="M167.68160545067843,57.165142860716195L199.63388143303334,45.795486565199674L199.63388143303334,-24.717449352773013z" style="fill:rgb(238,238,238); fill-opacity: 0.66"></path><path d="M181.45410324603677,31.76398790094413L181.45410324603677,33.82581031294235L110.7847777780515,25.521243733927214z" style="fill:rgb(153,221,255); fill-opacity: 0.4"></path><path d="M97.0122799826931,-19.5905372242734L97.0122799826931,50.922398693699286M97.0122799826931,50.922398693699286L167.6816054506784,57.165142860716195" style="fill:none;stroke:rgb(0,0,0);stroke-width:1;stroke-linecap:round"></path><path d="M180.5198077458266,32.09644054756322L181.45410324603677,31.76398790094413L110.7847777780515,25.521243733927214zM180.5198077458266,34.15826295956145L109.85048227784131,27.91551879254453L181.45410324603677,33.82581031294235zM109.85048227784131,27.91551879254453L180.5198077458266,34.15826295956145L180.5198077458266,32.09644054756322z" style="fill:rgb(153,221,255); fill-opacity: 0.4"></path><path d="M167.68160545067843,57.165142860716195L97.01227998269313,50.92239869369927L199.63388143303334,45.795486565199674zM97.01227998269313,-19.5905372242734L167.68160545067843,-13.347793057256487L128.96455596504802,-30.96019351978993zM212.13484507879022,-23.6131467806904L212.13484507879022,46.899789137282276L180.1825690964353,-12.243490485173874zM277.98889823980926,-17.795771228809482L277.98889823980926,52.71716468916319L212.13484507879022,-23.6131467806904zM180.1825690964353,58.269445432798804L212.13484507879022,46.899789137282276L277.98889823980926,52.71716468916319z" style="fill:rgb(238,238,238); fill-opacity: 0.66"></path><path d="M277.9888982398092,-17.79577122880948L277.9888982398092,52.717164689163205M277.9888982398092,52.717164689163205L246.03662225745435,64.08682098467973M181.45409730600588,31.76398672724129L181.45409730600588,33.82580913923951M181.45409730600588,33.82580913923951L180.51980165729344,34.15826183870053M181.45409730600588,33.82580913923951L193.4879124464372,34.065426827878575M181.45410324603677,31.76398790094413L181.45410324603677,33.82581031294235M181.45410324603677,33.82581031294235L180.5198077458266,34.15826295956145M181.45409730600588,31.76398672724129L180.51980165729344,32.09643942670231M181.45409730600588,31.76398672724129L193.4879124464372,34.065426827878575M181.45410324603677,31.76398790094413L180.5198077458266,32.096440547563226" style="fill:none;stroke:rgb(0,0,0);stroke-width:1;stroke-linecap:round"></path><path d="M181.45410275104828,31.76398785721814L181.45410275104828,33.82581026921636L180.51980725083808,34.15826291583546z" style="fill:rgb(255,187,187); fill-opacity: 0.4"></path><path d="M180.5198077458266,34.15826295956145L181.45410324603677,33.82581031294235L181.45410324603677,31.76398790094413z" style="fill:rgb(153,221,255); fill-opacity: 0.4"></path><path d="M181.45410275104828,31.76398785721814L180.51980725083808,34.15826291583546L180.51980725083808,32.096440503837236z" style="fill:rgb(255,187,187); fill-opacity: 0.4"></path><path d="M180.5198077458266,32.09644054756322L180.5198077458266,34.15826295956145L181.45410324603677,31.76398790094413z" style="fill:rgb(153,221,255); fill-opacity: 0.4"></path><path d="M180.51980165729344,34.15826183870053L180.51980165729344,32.09643942670231M180.51980165729344,34.15826183870053L193.4879124464372,34.065426827878575M180.5198077458266,32.096440547563226L180.5198077458266,34.15826295956145M97.0122799826931,-19.5905372242734L167.6816054506784,-13.347793057256489M180.51980165729344,32.09643942670231L193.4879124464372,34.065426827878575" style="fill:none;stroke:rgb(0,0,0);stroke-width:1;stroke-linecap:round"></path><path d="M181.45410275104828,33.82581026921636L181.45410275104828,31.76398785721814L193.48791803998185,34.0654279050135zM180.51980725083808,34.15826291583546L181.45410275104828,33.82581026921636L193.48791803998185,34.0654279050135zM181.45410275104828,31.76398785721814L180.51980725083808,32.096440503837236L193.48791803998185,34.0654279050135zM180.51980725083808,32.096440503837236L180.51980725083808,34.15826291583546L193.48791803998185,34.0654279050135z" style="fill:rgb(255,187,187); fill-opacity: 0.4"></path><path d="M97.01227998269313,-19.5905372242734L97.01227998269313,50.92239869369927L167.68160545067843,-13.347793057256487zM167.68160545067843,-13.347793057256487L167.68160545067843,57.165142860716195L199.63388143303334,-24.717449352773013z" style="fill:rgb(238,238,238); fill-opacity: 0.66"></path><path d="M277.9888982398092,-17.79577122880948L246.03662225745435,-6.42611493329295" style="fill:none;stroke:rgb(0,0,0);stroke-width:1;stroke-linecap:round"></path><path d="M212.13484507879022,46.899789137282276L180.1825690964353,58.269445432798804L180.1825690964353,-12.243490485173874zM97.01227998269313,50.92239869369927L167.68160545067843,57.165142860716195L167.68160545067843,-13.347793057256487zM246.03662225745433,-6.426114933292952L277.98889823980926,-17.795771228809482L212.13484507879022,-23.6131467806904z" style="fill:rgb(238,238,238); fill-opacity: 0.66"></path><path d="M167.6816054506784,-13.347793057256489L167.6816054506784,57.165142860716195" style="fill:none;stroke:rgb(0,0,0);stroke-width:1;stroke-linecap:round"></path><path d="M246.03662225745433,64.08682098467972L277.98889823980926,52.71716468916319L277.98889823980926,-17.795771228809482z" style="fill:rgb(238,238,238); fill-opacity: 0.66"></path><path d="M304.82610822463545,74.7918375028826L287.4960936074279,73.26094914432736M287.4960936074279,-26.30292067745691L287.4960936074279,73.26094914432736M287.4960936074279,73.26094914432736L278.8613696932939,76.33346401508636M180.18256909643532,-12.243490485173874L180.18256909643532,58.269445432798804M180.18256909643532,58.269445432798804L246.03662225745435,64.08682098467973" style="fill:none;stroke:rgb(0,0,0);stroke-width:1;stroke-linecap:round"></path><path d="M246.03662225745433,64.08682098467972L180.1825690964353,58.269445432798804L277.98889823980926,52.71716468916319zM180.1825690964353,-12.243490485173874L246.03662225745433,-6.426114933292952L212.13484507879022,-23.6131467806904z" style="fill:rgb(238,238,238); fill-opacity: 0.66"></path><path d="M304.82610822463545,-24.772032318901672L304.82610822463545,74.7918375028826M304.82610822463545,74.7918375028826L296.1913843105014,77.8643523736416" style="fill:none;stroke:rgb(0,0,0);stroke-width:1;stroke-linecap:round"></path><path d="M278.86136969329385,76.33346401508635L287.4960936074279,73.26094914432736L304.82610822463545,74.79183750288259zM304.82610822463545,74.79183750288259L287.4960936074279,73.26094914432736L287.4960936074279,-26.30292067745691z" style="fill:rgb(238,238,238); fill-opacity: 0.66"></path><path d="M271.30281678708417,23.96618427835567L278.38669584253944,24.59195570549813M180.18256909643532,-12.243490485173874L246.03662225745435,-6.42611493329295M334.6570858332616,77.42702837571791L317.3270712160541,75.89614001716268M317.3270712160541,-23.667729804621594L317.3270712160541,75.89614001716268M317.3270712160541,75.89614001716268L308.69234730192005,78.96865488792167" style="fill:none;stroke:rgb(0,0,0);stroke-width:1;stroke-linecap:round"></path><path d="M278.84433343299605,23.0390722491483L277.92905825208277,23.364756849160756L282.553683522219,24.960056544993698zM277.64622263772355,25.386388576685402L278.38669584253944,26.310141048829983L282.553683522219,24.960056544993698zM277.92905825208277,23.364756849160756L277.64622263772355,25.386388576685402L282.553683522219,24.960056544993698z" style="fill:rgb(0,0,0)"></path><path d="M296.1913843105014,77.8643523736416L278.86136969329385,76.33346401508635L304.82610822463545,74.79183750288259z" style="fill:rgb(238,238,238); fill-opacity: 0.66"></path><path d="M278.8613696932939,-23.23040580669791L278.8613696932939,76.33346401508636M278.8613696932939,76.33346401508636L296.1913843105014,77.8643523736416" style="fill:none;stroke:rgb(0,0,0);stroke-width:1;stroke-linecap:round"></path><path d="M287.4960936074279,73.26094914432736L278.86136969329385,76.33346401508635L278.86136969329385,-23.23040580669791zM304.82610822463545,-24.772032318901672L304.82610822463545,74.79183750288259L287.4960936074279,-26.30292067745691zM287.4960936074279,-26.30292067745691L287.4960936074279,73.26094914432736L278.86136969329385,-23.23040580669791z" style="fill:rgb(238,238,238); fill-opacity: 0.66"></path><path d="M304.82610822463545,-24.772032318901672L287.4960936074279,-26.30292067745691M287.4960936074279,-26.30292067745691L278.8613696932939,-23.23040580669791" style="fill:none;stroke:rgb(0,0,0);stroke-width:1;stroke-linecap:round"></path><path d="M180.1825690964353,-12.243490485173874L180.1825690964353,58.269445432798804L246.03662225745433,-6.426114933292952zM246.03662225745433,-6.426114933292952L246.03662225745433,64.08682098467972L277.98889823980926,-17.795771228809482zM296.1913843105014,77.8643523736416L304.82610822463545,74.79183750288259L304.82610822463545,-24.772032318901672z" style="fill:rgb(238,238,238); fill-opacity: 0.66"></path><path d="M334.6570858332616,-22.136841446066352L334.6570858332616,77.42702837571791M334.6570858332616,77.42702837571791L326.02236191912755,80.49954324647692" style="fill:none;stroke:rgb(0,0,0);stroke-width:1;stroke-linecap:round"></path><path d="M308.69234730192005,78.96865488792166L317.3270712160541,75.89614001716267L334.6570858332616,77.42702837571791zM334.6570858332616,77.42702837571791L317.3270712160541,75.89614001716267L317.3270712160541,-23.667729804621597z" style="fill:rgb(238,238,238); fill-opacity: 0.66"></path><path d="M296.1913843105014,-21.69951744814267L296.1913843105014,77.8643523736416" style="fill:none;stroke:rgb(0,0,0);stroke-width:1;stroke-linecap:round"></path><path d="M180.1825690964353,58.269445432798804L246.03662225745433,64.08682098467972L246.03662225745433,-6.426114933292952z" style="fill:rgb(238,238,238); fill-opacity: 0.66"></path><path d="M301.1337943957103,26.601375151190986L308.2176734511656,27.227146578333446M304.82610822463545,-24.772032318901672L296.1913843105014,-21.69951744814267" style="fill:none;stroke:rgb(0,0,0);stroke-width:1;stroke-linecap:round"></path><path d="M278.86136969329385,76.33346401508635L296.1913843105014,77.8643523736416L296.1913843105014,-21.69951744814267zM296.1913843105014,-21.69951744814267L304.82610822463545,-24.772032318901672L287.4960936074279,-26.30292067745691z" style="fill:rgb(238,238,238); fill-opacity: 0.66"></path><path d="M364.48806344188773,75.38173723363738L347.1580488246802,73.85084887508214M347.1580488246802,-16.352056916870435L347.1580488246802,73.85084887508214M347.1580488246802,73.85084887508214L338.5233249105462,76.92336374584114" style="fill:none;stroke:rgb(0,0,0);stroke-width:1;stroke-linecap:round"></path><path d="M308.67531104162225,25.674263121983618L307.76003586070897,25.99994772199607L312.38466113084513,27.59524741782901zM307.47720024634975,28.021579449520715L308.2176734511656,28.945331921665296L312.38466113084513,27.59524741782901zM307.76003586070897,25.99994772199607L307.47720024634975,28.021579449520715L312.38466113084513,27.59524741782901z" style="fill:rgb(0,0,0)"></path><path d="M326.02236191912755,80.49954324647692L308.69234730192005,78.96865488792166L334.6570858332616,77.42702837571791z" style="fill:rgb(238,238,238); fill-opacity: 0.66"></path><path d="M308.69234730192005,-20.595214933862593L308.69234730192005,78.96865488792167M308.69234730192005,78.96865488792167L326.02236191912755,80.49954324647692" style="fill:none;stroke:rgb(0,0,0);stroke-width:1;stroke-linecap:round"></path><path d="M296.1913843105014,-21.69951744814267L296.1913843105014,77.8643523736416L304.82610822463545,-24.772032318901672zM278.86136969329385,-23.23040580669791L278.86136969329385,76.33346401508635L296.1913843105014,-21.69951744814267zM317.3270712160541,75.89614001716267L308.69234730192005,78.96865488792166L308.69234730192005,-20.595214933862596zM278.86136969329385,-23.23040580669791L296.1913843105014,-21.69951744814267L287.4960936074279,-26.30292067745691zM334.6570858332616,-22.136841446066352L334.6570858332616,77.42702837571791L317.3270712160541,-23.667729804621597zM317.3270712160541,-23.667729804621597L317.3270712160541,75.89614001716267L308.69234730192005,-20.595214933862596z" style="fill:rgb(238,238,238); fill-opacity: 0.66"></path><path d="M246.03662225745435,-6.42611493329295L246.03662225745435,64.08682098467973M334.6570858332616,-22.136841446066352L317.3270712160541,-23.667729804621594M317.3270712160541,-23.667729804621594L308.69234730192005,-20.595214933862593" style="fill:none;stroke:rgb(0,0,0);stroke-width:1;stroke-linecap:round"></path><path d="M326.02236191912755,80.49954324647692L334.6570858332616,77.42702837571791L334.6570858332616,-22.136841446066352z" style="fill:rgb(238,238,238); fill-opacity: 0.66"></path><path d="M278.8613696932939,-23.23040580669791L296.1913843105014,-21.69951744814267" style="fill:none;stroke:rgb(0,0,0);stroke-width:1;stroke-linecap:round"></path><path d="M364.48806344188773,75.38173723363738L347.15804882468024,73.85084887508214L347.15804882468024,-16.352056916870435z" style="fill:rgb(238,238,238); fill-opacity: 0.66"></path><path d="M364.48806344188773,-14.821168558315197L364.48806344188773,75.38173723363738M364.48806344188773,75.38173723363738L355.8533395277537,78.45425210439637" style="fill:none;stroke:rgb(0,0,0);stroke-width:1;stroke-linecap:round"></path><path d="M338.5233249105462,76.92336374584113L347.15804882468024,73.85084887508214L364.48806344188773,75.38173723363738z" style="fill:rgb(238,238,238); fill-opacity: 0.66"></path><path d="M326.02236191912755,-19.06432657530735L326.02236191912755,80.49954324647692M330.96477200433645,29.236566024026295L338.04865105979167,29.862337451168756M334.6570858332616,-22.136841446066352L326.02236191912755,-19.06432657530735" style="fill:none;stroke:rgb(0,0,0);stroke-width:1;stroke-linecap:round"></path><path d="M308.69234730192005,78.96865488792166L326.02236191912755,80.49954324647692L326.02236191912755,-19.06432657530735zM326.02236191912755,-19.06432657530735L334.6570858332616,-22.136841446066352L317.3270712160541,-23.667729804621597z" style="fill:rgb(238,238,238); fill-opacity: 0.66"></path><path d="M338.50628865024834,28.309453994818927L337.5910134693351,28.635138594831382L342.2156387394712,30.230438290664324zM337.30817785497584,30.656770322356028L338.0486510597917,31.58052279450061L342.2156387394712,30.230438290664324zM337.5910134693351,28.635138594831382L337.30817785497584,30.656770322356028L342.2156387394712,30.230438290664324z" style="fill:rgb(0,0,0)"></path><path d="M364.48806344188773,-14.821168558315197L347.1580488246802,-16.352056916870435M347.1580488246802,-16.352056916870435L338.5233249105462,-13.27954204611144" style="fill:none;stroke:rgb(0,0,0);stroke-width:1;stroke-linecap:round"></path><path d="M326.02236191912755,-19.06432657530735L326.02236191912755,80.49954324647692L334.6570858332616,-22.136841446066352zM308.69234730192005,-20.595214933862596L308.69234730192005,78.96865488792166L326.02236191912755,-19.06432657530735zM364.48806344188773,-14.821168558315197L364.48806344188773,75.38173723363738L347.15804882468024,-16.352056916870435zM347.15804882468024,-16.352056916870435L347.15804882468024,73.85084887508214L338.5233249105462,-13.27954204611144zM308.69234730192005,-20.595214933862596L326.02236191912755,-19.06432657530735L317.3270712160541,-23.667729804621597zM347.15804882468024,73.85084887508214L338.5233249105462,76.92336374584113L338.5233249105462,-13.27954204611144zM355.85333952775363,78.45425210439636L338.5233249105462,76.92336374584113L364.48806344188773,75.38173723363738z" style="fill:rgb(238,238,238); fill-opacity: 0.66"></path><path d="M338.5233249105462,-13.27954204611144L338.5233249105462,76.92336374584114M338.5233249105462,76.92336374584114L355.8533395277537,78.45425210439637M308.69234730192005,-20.595214933862593L326.02236191912755,-19.06432657530735" style="fill:none;stroke:rgb(0,0,0);stroke-width:1;stroke-linecap:round"></path><path d="M355.85333952775363,78.45425210439636L364.48806344188773,75.38173723363738L364.48806344188773,-14.821168558315197z" style="fill:rgb(238,238,238); fill-opacity: 0.66"></path><path d="M364.48806344188773,-14.821168558315197L355.8533395277537,-11.748653687556201M355.8533395277537,-11.748653687556201L355.8533395277537,78.45425210439637" style="fill:none;stroke:rgb(0,0,0);stroke-width:1;stroke-linecap:round"></path><path d="M355.85333952775363,-11.748653687556201L364.48806344188773,-14.821168558315197L347.15804882468024,-16.352056916870435zM338.5233249105462,76.92336374584113L355.85333952775363,78.45425210439636L355.85333952775363,-11.748653687556201zM338.5233249105462,-13.27954204611144L355.85333952775363,-11.748653687556201L347.15804882468024,-16.352056916870435zM355.85333952775363,-11.748653687556201L355.85333952775363,78.45425210439636L364.48806344188773,-14.821168558315197zM338.5233249105462,-13.27954204611144L338.5233249105462,76.92336374584113L355.85333952775363,-11.748653687556201z" style="fill:rgb(238,238,238); fill-opacity: 0.66"></path><path d="M338.5233249105462,-13.27954204611144L355.8533395277537,-11.748653687556201" style="fill:none;stroke:rgb(0,0,0);stroke-width:1;stroke-linecap:round"></path></svg>